<?xml version="1.0" encoding="utf-8" ?>
<svg xmlns="http://www.w3.org/2000/svg" xmlns:xlink="http://www.w3.org/1999/xlink" width="1024" height="1024">
	<path fill="#070706" d="M501.373 29.7314C539.774 28.739 579.106 33.0697 616.729 40.6552C627.969 42.9213 639.011 46.0932 650.219 48.5218Q664.091 42.6802 678.06 37.0761C688.762 41.1896 701.638 44.2793 711.651 48.9053C715.541 59.276 722.338 68.8269 725.724 79.2524C765.682 100.358 802.597 124.91 835.566 156.012Q839.858 160.072 844.05 164.235Q848.242 168.399 852.331 172.663Q856.419 176.928 860.402 181.292Q864.386 185.655 868.261 190.115Q872.136 194.574 875.901 199.127Q879.666 203.68 883.319 208.324Q886.971 212.968 890.509 217.699Q894.047 222.431 897.469 227.248Q900.89 232.065 904.192 236.964Q907.495 241.862 910.676 246.841Q913.858 251.819 916.917 256.874Q919.975 261.928 922.91 267.056Q925.844 272.184 928.652 277.382Q931.46 282.58 934.141 287.845Q936.821 293.111 939.371 298.44Q941.922 303.769 944.341 309.159Q946.761 314.549 949.048 319.996Q951.335 325.444 953.488 330.946Q955.641 336.447 957.659 342Q959.677 347.553 961.558 353.154Q963.44 358.754 965.184 364.399Q966.928 370.044 968.533 375.73Q970.138 381.415 971.604 387.139Q973.07 392.862 974.396 398.619Q975.721 404.377 976.906 410.165Q978.09 415.953 979.132 421.769Q980.175 427.584 981.075 433.423Q981.974 439.262 982.731 445.122Q983.488 450.981 984.101 456.857Q984.715 462.734 985.184 468.623Q985.654 474.512 985.979 480.412Q986.304 486.311 986.485 492.216Q986.663 498.03 986.697 503.846Q986.732 509.662 986.624 515.477Q986.516 521.292 986.265 527.103Q986.014 532.914 985.62 538.717Q985.226 544.52 984.69 550.311Q984.154 556.103 983.476 561.879Q982.798 567.656 981.978 573.414Q981.158 579.172 980.197 584.909Q979.236 590.645 978.134 596.356Q977.032 602.067 975.791 607.749Q974.549 613.431 973.168 619.081Q971.787 624.731 970.268 630.346Q968.749 635.96 967.092 641.535Q965.435 647.111 963.642 652.643Q961.849 658.176 959.921 663.664Q957.992 669.151 955.929 674.589Q953.867 680.027 951.671 685.413Q949.475 690.799 947.148 696.129Q944.821 701.46 942.363 706.731Q939.905 712.003 937.319 717.212Q934.733 722.422 932.019 727.566Q929.306 732.711 926.467 737.787Q923.628 742.863 920.665 747.868Q917.702 752.873 914.617 757.804Q911.532 762.735 908.327 767.588Q905.122 772.442 901.798 777.215Q898.475 781.988 895.035 786.678Q891.596 791.369 888.042 795.973Q884.488 800.577 880.822 805.093Q877.156 809.608 873.381 814.032Q869.605 818.456 865.722 822.786Q861.838 827.117 857.85 831.35Q854.525 834.823 851.132 838.23Q847.739 841.637 844.279 844.977Q840.819 848.316 837.294 851.586Q833.769 854.856 830.18 858.056Q826.591 861.256 822.939 864.384Q819.288 867.512 815.575 870.568Q811.862 873.623 808.089 876.605Q804.317 879.586 800.486 882.492Q796.656 885.398 792.768 888.228Q788.881 891.058 784.938 893.811Q780.996 896.563 776.999 899.237Q773.003 901.911 768.955 904.506Q764.906 907.1 760.807 909.614Q756.708 912.128 752.561 914.56Q748.413 916.993 744.218 919.343Q740.023 921.692 735.782 923.959Q731.541 926.225 727.257 928.408Q722.972 930.59 718.645 932.687Q714.318 934.784 709.95 936.795Q705.583 938.806 701.176 940.73Q696.77 942.655 692.326 944.491Q687.882 946.328 683.403 948.077Q678.924 949.825 674.411 951.485Q669.898 953.145 665.353 954.715Q660.809 956.285 656.234 957.765Q651.659 959.245 647.055 960.634Q642.452 962.023 637.822 963.321Q633.192 964.619 628.538 965.825Q623.883 967.031 619.205 968.145Q614.528 969.258 609.829 970.279Q605.13 971.301 600.412 972.229Q595.694 973.157 590.959 973.991C572.171 977.279 552.969 980.08 533.875 980.553Q531.439 980.732 528.998 980.823Q524.335 981.02 519.669 981.122Q515.002 981.225 510.335 981.233Q505.668 981.242 501.001 981.157Q496.334 981.071 491.671 980.892Q487.007 980.713 482.347 980.44Q477.688 980.167 473.035 979.8Q468.382 979.433 463.737 978.972Q459.093 978.512 454.459 977.958Q449.824 977.404 445.202 976.757Q440.58 976.11 435.971 975.37Q431.363 974.63 426.77 973.797Q422.178 972.964 417.603 972.039Q413.028 971.114 408.473 970.098Q403.918 969.081 399.384 967.972Q394.85 966.864 390.34 965.664Q385.829 964.465 381.344 963.175Q376.858 961.885 372.399 960.505Q367.941 959.125 363.511 957.655Q359.081 956.185 354.681 954.627Q350.282 953.068 345.915 951.422Q341.548 949.775 337.214 948.04Q332.881 946.306 328.584 944.485Q324.286 942.663 320.027 940.756Q315.767 938.849 311.546 936.856Q307.326 934.863 303.146 932.786Q298.967 930.708 294.83 928.547Q290.693 926.386 286.6 924.142Q282.508 921.898 278.461 919.572Q274.415 917.246 270.416 914.839Q266.417 912.433 262.467 909.946Q258.518 907.459 254.619 904.893Q250.72 902.327 246.874 899.683C234.95 891.571 223.707 883.047 212.492 873.988C207.532 869.982 202.362 866.069 197.7 861.717C181.099 846.223 164.782 829.956 150.179 812.564Q146.977 808.783 143.855 804.936Q140.733 801.09 137.692 797.178Q134.651 793.267 131.692 789.293Q128.733 785.319 125.858 781.284Q122.983 777.249 120.193 773.155Q117.403 769.061 114.699 764.91Q111.995 760.758 109.378 756.551Q106.761 752.344 104.233 748.084Q101.705 743.823 99.2662 739.51Q96.8275 735.198 94.4795 730.835Q92.1314 726.472 89.875 722.062Q87.6186 717.651 85.4548 713.194Q83.2911 708.737 81.2209 704.236Q79.1507 699.735 77.175 695.191Q75.1993 690.648 73.3189 686.064Q71.4386 681.48 69.6544 676.858Q67.8702 672.236 66.1829 667.578Q64.4957 662.92 62.9061 658.227Q61.3165 653.535 59.8254 648.81Q58.3342 644.085 56.942 639.331Q55.5498 634.576 54.2573 629.793Q52.9648 625.01 51.7724 620.201Q50.5801 615.393 49.4885 610.56Q48.3968 605.727 47.4064 600.873Q46.416 596.018 45.5272 591.144Q44.6384 586.27 43.8516 581.379Q43.0648 576.487 42.3804 571.58Q41.696 566.673 41.1142 561.753Q40.5324 556.833 40.0536 551.902Q39.5747 546.971 39.199 542.031Q38.8233 537.09 38.5508 532.143Q38.2784 527.197 38.1093 522.245Q37.9359 516.253 37.9095 510.259Q37.883 504.264 38.0035 498.271Q38.1239 492.278 38.3912 486.289Q38.6585 480.301 39.0725 474.321Q39.4864 468.341 40.0468 462.372Q40.6072 456.404 41.3137 450.452Q42.0202 444.499 42.8723 438.565Q43.7245 432.632 44.7218 426.721Q45.7191 420.81 46.861 414.925Q48.0028 409.041 49.2886 403.186Q50.5743 397.331 52.0031 391.509Q53.432 385.687 55.003 379.902Q56.5741 374.118 58.2865 368.373Q59.9988 362.628 61.8515 356.927Q63.7041 351.226 65.6959 345.572Q67.6877 339.919 69.8174 334.315Q71.9472 328.712 74.2136 323.162Q76.48 317.613 78.8818 312.121Q81.2835 306.628 83.8192 301.197Q86.3548 295.765 89.0228 290.397Q91.6907 285.029 94.4895 279.728Q97.2882 274.427 100.216 269.196Q103.144 263.965 106.199 258.808Q109.254 253.65 112.435 248.569Q115.615 243.488 118.919 238.487Q122.223 233.485 125.649 228.566Q129.075 223.647 132.62 218.813Q136.165 213.979 139.828 209.234Q143.491 204.489 147.268 199.835Q151.046 195.18 154.937 190.62Q158.828 186.06 162.829 181.597Q166.83 177.133 170.94 172.769C245.355 93.515 350.396 44.9209 457.8 32.451C472.275 30.7705 486.819 30.1997 501.373 29.7314Z"/>
	<path fill="#F99D3A" d="M706.573 53.8991L707.802 54.2113C709.023 55.9642 710.528 57.8867 710.324 60.1202L709.557 60.5781L707.371 59.9317L701.055 56.808C702.944 55.9576 704.754 54.8891 706.573 53.8991Z"/>
	<path fill="#FEFEFE" d="M594.402 493.357C595.369 494.043 596.023 494.827 596.791 495.72C596.767 498.14 593.82 501.181 593.007 503.743C591.611 508.139 591.426 512.794 590.075 517.203C589.744 516.871 589.425 516.525 589.121 516.168C586.81 513.457 586.053 510.494 586.482 506.963C587.128 501.649 590.343 496.71 594.402 493.357Z"/>
	<path fill="#F99D3A" d="M128.912 301.861C137.538 305.627 146.169 310.842 154.332 315.552C152.951 319.041 151.701 322.592 150.399 326.111C149.967 327.747 149.403 329.367 148.9 330.983C142.078 322.845 134.522 310.956 128.912 301.861Z"/>
	<path fill="#FEFEFE" d="M587.222 524.497L588.478 524.545C589.193 525.954 588.698 527.83 588.547 529.408Q565.305 536.98 542.619 546.081L541.672 546.137C540.688 544.068 540.824 541.508 540.696 539.247C545.635 537.619 550.728 536.37 555.698 534.807Q571.497 529.765 587.222 524.497Z"/>
	<path fill="#FEFEFE" d="M681.678 483.52C699.958 482.747 729.311 496.353 749.241 498.778L748.218 504.651C744.01 503.493 739.845 502.14 735.671 500.865C718.49 496.11 701.049 490.335 683.477 487.329C681.191 492.171 678.755 496.898 675.78 501.356C676.652 495.768 679.262 488.706 681.678 483.52Z"/>
	<path fill="#F99D3A" d="M760.687 407.735C762.001 407.696 762.432 407.391 763.457 408.325C764.718 417.607 764.62 427.371 765.084 436.735C765.724 449.665 766.71 462.62 766.941 475.565C764.621 476.345 762.374 477.311 760.113 478.246C759.578 478.599 759.274 478.612 758.652 478.701C757.252 476.349 755.009 415.557 754.66 407.973L760.687 407.735Z"/>
	<path fill="#FEFEFE" d="M552.988 561.427C554.336 561.313 555.47 561.081 556.696 561.79C556.916 562.368 557.112 562.889 557.211 563.503C558.092 568.948 557.734 575.09 557.853 580.623Q558.346 597.931 558.547 615.244Q559.286 640.855 559.636 666.475C559.733 673.218 560.364 680.299 559.952 687.004C559.876 688.24 559.545 688.842 558.804 689.811C558.327 689.749 557.973 689.718 557.498 689.575C556.361 689.231 555.578 688.626 555.107 687.515C554.234 685.453 552.085 576.469 552.261 566.335C552.291 564.588 552.421 563.098 552.988 561.427Z"/>
	<path fill="#F99D3A" d="M146.026 338.73C146.239 338.858 146.464 338.966 146.664 339.114C146.794 339.209 146.915 339.322 147.008 339.454C148.158 341.077 148.188 347.053 148.496 349.242C150.041 360.235 154.062 370.533 161.818 378.644C171.962 389.253 185.23 392.911 199.459 393.151Q193.514 400.247 187.403 407.202C184.777 410.381 182.286 413.559 179.973 416.974L149.599 417.874L146.753 359.94C146.468 353.854 144.87 344.386 146.026 338.73Z"/>
	<path fill="#F99D3A" d="M767.878 332.926C768.509 333.599 770.374 393.067 770.548 399.482Q745.379 400.889 720.186 401.761C718.939 401.738 719.491 401.905 718.507 401.342C719.183 397.191 726.318 389.41 728.945 385.707C732.633 380.504 735.985 375.091 739.739 369.913C748.824 357.383 758.454 345.205 767.878 332.926Z"/>
	<path fill="#F99D3A" d="M579.182 845.186C584.794 845.938 590.787 848.788 596.09 850.751C587.193 851.511 578.409 852.947 569.561 854.105C548.251 856.894 526.976 860.04 505.646 862.659L393.576 876.942C367.205 880.261 340.77 883.082 314.457 886.859C310.321 887.273 305.807 888.67 301.663 888.075C300.127 887.855 299.096 887.454 298.167 886.146C298.241 885.317 298.143 884.965 298.681 884.271C299.975 882.6 302.103 881.857 304.112 881.444C312.482 879.724 321.691 879.267 330.212 878.148Q360.533 874.064 390.909 870.41L480.279 858.854C513.276 854.64 546.369 850.694 579.182 845.186Z"/>
	<path fill="#F99D3A" d="M530.814 829.237C534.656 829.2 544.191 832.919 548.32 834.204C519.336 837.128 490.483 841.763 461.594 845.534L258.573 871.86C254.254 872.381 249.352 873.585 245.046 873.452C243.148 873.393 242.367 872.346 241.159 871.05C240.824 869.752 240.83 869.86 241.512 868.701C243.161 867.615 244.7 867.101 246.641 866.768C278.909 861.233 311.827 858.153 344.289 853.833L530.814 829.237Z"/>
	<path fill="#F99D3A" d="M552.325 837.692C559.601 836.707 564.655 839.075 570.952 842.291C559.751 844.441 548.095 845.494 536.772 847.022Q504.327 851.531 471.824 855.597L364.238 869.458C337.308 872.898 310.299 876.066 283.417 879.842C278.713 880.174 273.417 881.985 268.737 881.24C267.13 880.984 266.482 880.4 265.607 879.085C265.482 877.557 265.631 876.915 266.225 875.561C271.743 873.509 281.233 873.196 287.412 872.387L341.918 865.415L472.732 848.496C499.269 844.96 525.744 840.864 552.325 837.692Z"/>
	<path fill="#F99D3A" d="M519.941 819.747C521.426 820.331 523.641 824.274 524.639 825.726C500.968 829.827 476.819 832.221 452.986 835.228L366.062 846.761L276.576 858.292C258.644 860.585 240.655 863.406 222.624 864.697C221.788 864.789 220.842 864.666 219.996 864.637C218.797 864.003 218.394 863.442 217.641 862.362C217.585 861.46 217.483 861.071 218.146 860.344C219.755 858.579 223.592 858.044 225.876 857.679C235.415 856.155 245.202 855.504 254.795 854.189L363.994 839.928L436.461 830.69C464.276 826.898 492.01 822.666 519.941 819.747Z"/>
	<path fill="#FEFEFE" d="M631.318 481.989C637.421 484.975 643.238 488.833 649.216 492.095C655.534 495.544 662.156 498.398 668.729 501.318C668.169 502.797 667.724 503.961 666.651 505.168C657.584 504.668 639.799 492.969 631.967 487.695C624.705 499.437 611.443 503.586 604.572 512.618C602.004 515.992 600.894 520.076 601.653 524.268C603.56 534.815 612.854 541.677 620.995 547.468C629.851 546.509 638.71 545.443 647.603 544.901C646.892 546.769 645.963 548.573 645.112 550.38C632.906 551.422 620.757 553.083 608.561 554.231C583.065 556.628 555.534 558.357 529.973 558.619C529.895 573.067 530.732 587.6 531.167 602.046C532.31 639.984 534.027 678.043 534.502 715.992L535.673 762.422C535.876 769.367 536.938 777.439 536.115 784.296C535.634 788.309 533.291 792.534 531.643 796.222Q529.291 730.461 527.808 664.675L525.47 579.458C525.25 570.873 524.713 562.295 524.594 553.709C554.317 552.171 584.145 551.418 613.781 548.358C609.811 546.051 606.331 543.713 603.336 540.174C598.527 534.493 595.791 527.097 596.493 519.618C596.798 516.368 597.797 512.326 599.786 509.667C604.11 503.882 612.648 498.84 618.256 494.04C622.762 490.183 626.756 485.773 631.318 481.989Z"/>
	<path fill="#F99D3A" d="M199.063 267.469C202.607 268.094 225.365 279.666 230.616 282.044Q248.94 290.24 267.367 298.201C276.041 301.97 284.951 305.542 293.174 310.234C285.68 313.606 278.08 316.751 270.62 320.197C265.466 322.579 260.309 325.521 254.97 327.423C252.709 328.228 250.117 328.553 247.752 328.959C246.509 324.088 244.928 319.684 242.608 315.216C242.532 315.087 242.459 314.957 242.381 314.83C235.154 302.852 224.421 293.833 210.699 290.384C193.304 286.013 181.214 291.178 166.561 299.892C159.192 297.162 152.028 293.503 144.886 290.219C162.482 281.717 181.212 275.473 199.063 267.469Z"/>
	<path fill="#F99D3A" d="M310.275 331.295C313.079 331.027 315.926 331.017 318.742 330.921C308.421 341.407 298.555 352.565 288.517 363.342Q272.738 379.979 258.069 397.602C253.541 403.049 248.789 408.492 245.022 414.505C234.335 414.309 223.554 415.143 212.877 415.638C210.347 415.918 207.759 415.927 205.215 416.03C209.184 409.743 213.491 403.628 217.639 397.455C220.353 393.416 222.949 388.963 226.021 385.198C228.187 382.542 231.178 380.53 233.563 378.054C245.971 365.171 248.707 351.191 248.463 333.936C269.047 333.036 289.726 332.756 310.275 331.295Z"/>
	<path fill="#FEFEFE" d="M806.525 473.081Q807.239 473.01 807.954 472.957C813.768 472.539 818.78 474.708 823.13 478.501C829.806 484.324 832.238 491.592 832.769 500.192Q833.703 500.768 834.596 501.405Q835.49 502.041 836.339 502.736Q837.188 503.431 837.989 504.181Q838.79 504.931 839.539 505.732Q840.288 506.533 840.983 507.383Q841.677 508.232 842.314 509.126Q842.95 510.02 843.525 510.954Q844.101 511.888 844.613 512.858C847.834 519.057 847.935 525.363 845.836 531.919C844.186 537.073 841.258 543.025 836.133 545.421Q835.426 545.748 834.68 545.974Q833.934 546.199 833.165 546.32Q832.395 546.44 831.616 546.453Q830.837 546.465 830.064 546.37C824.066 545.666 809.956 539.495 803.379 537.202C790.871 532.936 777.334 529.7 765.232 524.496C760.644 522.523 756.451 519.686 754.653 514.815C752.678 509.464 754.225 503.429 756.515 498.42C759.544 491.793 764.89 485.732 771.915 483.316C777.42 481.424 782.17 481.845 787.292 484.365C793.332 479.24 798.717 475.08 806.525 473.081Z"/>
	<path fill="#070706" d="M807.868 479.12C809.528 479.041 811.121 479.174 812.742 479.571C817.1 480.638 820.792 483.131 823.137 486.991C826.02 491.738 825.865 495.864 824.723 501.022C829.924 505.136 835.995 509.579 839.078 515.612C841.315 519.988 841.483 524.745 839.918 529.368C838.662 533.075 836.006 538.295 832.324 539.993C831.318 540.457 830.744 540.453 829.671 540.214C826.597 539.529 823.375 537.914 820.388 536.849C814.347 534.694 808.22 532.742 802.129 530.731Q791.353 526.919 780.482 523.39C775.649 521.811 770.228 520.564 765.814 518.011C763.398 516.613 761.719 514.74 761.05 511.978C760.012 507.689 761.944 501.791 764.157 498.133C774.427 481.16 782.666 493.189 791.389 489.252C797.931 486.3 798.44 481.335 807.868 479.12Z"/>
	<path fill="#FEFEFE" d="M768.608 503.071C769.354 503.27 770.052 503.483 770.739 503.846C772.145 504.586 772.981 506.146 773.333 507.651C773.944 510.27 773.128 512.814 771.778 515.035C771.019 515.103 770.289 515.051 769.529 515.016C768.711 514.543 768.018 514.174 767.541 513.309C765.871 510.275 767.489 506.039 768.608 503.071Z"/>
	<path fill="#FEFEFE" d="M831.238 521.388C832.09 521.401 833.218 521.316 834.034 521.535C835.194 521.847 835.764 522.391 836.208 523.49C836.735 524.794 836.294 526.821 835.831 528.081C834.281 532.309 831.938 535.356 827.841 537.193C827.31 537.101 826.777 537.022 826.253 536.901C824.682 536.539 823.983 535.995 823.126 534.654C823.095 531.77 829.479 524.21 831.238 521.388Z"/>
	<path fill="#F99D3A" d="M569.619 110.434C570.436 110.355 571.192 110.397 571.973 110.674C577.719 112.709 583.364 115.455 589.007 117.805L623.131 131.949C636.399 137.49 652.603 142.886 664.77 149.947C655.257 154.255 608.072 176.486 602.477 177.013C581.978 168.178 560.865 160.364 540.096 152.156C528.458 147.557 516.646 143.227 505.549 137.406L569.619 110.434Z"/>
	<path fill="#F99D3A" d="M383.226 189.414C393.987 192.601 406.538 198.633 417.153 202.923C438.795 211.669 460.525 220.281 482.04 229.332C472.715 233.913 462.927 237.683 453.331 241.656L417.622 256.717C417.505 256.765 417.396 256.837 417.272 256.861C417.228 256.869 415.888 256.978 415.816 256.969C415.604 256.942 396.066 247.957 393.887 247.045C369.089 236.67 343.617 227.734 319.074 216.745C340.347 207.392 361.915 198.692 383.226 189.414Z"/>
	<path fill="#F99D3A" d="M477.458 149.526C487.382 155.224 500.218 159.006 510.975 163.152Q543.688 175.671 576.248 188.583C568.435 192.747 559.859 196.109 551.713 199.591Q529.538 208.839 507.618 218.677C506.674 218.8 505.951 218.666 505.068 218.327C491.354 213.063 477.845 206.802 464.214 201.262C445.745 193.756 426.79 186.709 408.67 178.407C431.4 168.409 454.208 158.259 477.458 149.526Z"/>
	<path fill="#F99D3A" d="M677.759 65.9491C681.8 65.6902 716.806 81.2324 722.989 83.8129C725.466 88.6145 727.38 93.7848 729.718 98.6701C732.955 105.434 736.505 112.047 739.488 118.93C722.984 124.999 707.18 133.098 690.737 139.392C683.321 136.679 676.047 133.518 668.75 130.498L626.942 112.903C616.807 108.663 606.222 104.731 596.547 99.5167C607.508 94.6506 618.775 90.3151 629.861 85.7305C645.829 79.1269 661.712 72.3655 677.759 65.9491Z"/>
	<path fill="#F99D3A" d="M749.955 318.72C751.164 318.637 751.719 318.456 752.826 318.975C752.167 322.346 714.958 369.546 709.666 376.658C703.304 385.21 697.208 393.94 690.977 402.585C667.128 402.229 643.237 403.934 619.375 404.03L617.132 403.885L616.872 403.358C625.501 391.205 637.135 378.159 646.671 366.487Q657.874 352.817 669.221 339.267C674.509 332.942 679.71 326.405 685.579 320.605C706.958 320.952 728.588 319.593 749.955 318.72Z"/>
	<path fill="#F99D3A" d="M294.348 227.489C303.873 229.616 315.933 235.834 325.264 239.55L364.298 255.326C373.492 258.984 383.439 262.24 392.044 267.13C367.09 277.398 342.379 288.59 317.659 299.428C317.147 299.625 316.029 300.005 315.504 299.945C313.865 299.757 298.99 292.138 295.969 290.797Q258.713 274.363 221.199 258.526Q257.573 242.534 294.348 227.489Z"/>
	<path fill="#F99D3A" d="M649.181 321.773L658.546 321.491C648.177 332.987 638.614 345.193 628.863 357.21Q609.522 380.812 590.559 404.719C568.104 405.653 545.593 405.569 523.125 406.418L513.828 406.753C521.383 396.139 530.44 386.369 538.907 376.462L584.235 323.51Q616.695 322.141 649.181 321.773Z"/>
	<path fill="#F99D3A" d="M194.846 295.692C205.395 294.683 216.809 297.835 225.235 304.271C234.449 311.31 240.423 322.851 241.911 334.256C243.555 346.855 240.745 359.962 232.812 370.04C224.665 380.389 213.975 385.226 201.122 386.764C190.459 387.926 179.5 384.539 170.998 378.095C161.028 370.538 155.451 360.041 153.907 347.678C152.463 336.12 155.385 322.533 162.698 313.289C170.845 302.991 181.957 297.24 194.846 295.692Z"/>
	<path fill="#070706" d="M196.665 308.687C203.227 308.481 209.644 310.23 215.06 314.005C222.132 318.933 227.247 327.236 228.78 335.687C230.291 344.019 228.814 353.239 223.861 360.217C218.046 368.409 209.907 371.742 200.33 373.483C192.303 373.81 184.821 371.701 178.439 366.759C171.9 361.696 168.059 354.698 167.077 346.502C165.934 336.955 168.235 327.162 174.301 319.601C179.943 312.568 187.995 309.659 196.665 308.687Z"/>
	<path fill="#F99D3A" d="M193.364 316.589C198.752 316.058 203.928 316.276 208.865 318.796C214.742 321.796 219.244 327.516 221.048 333.833C222.945 340.471 222.133 348.028 218.717 354.043C215.096 360.417 209.54 363.874 202.68 365.881C197.663 366.788 192.759 366.31 188.063 364.276Q187.513 364.035 186.975 363.766Q186.437 363.498 185.913 363.203Q185.389 362.908 184.881 362.588Q184.372 362.267 183.881 361.922Q183.389 361.577 182.914 361.207Q182.44 360.838 181.985 360.445Q181.53 360.053 181.095 359.638Q180.659 359.224 180.245 358.788Q179.831 358.352 179.439 357.897Q179.048 357.441 178.679 356.966Q178.31 356.492 177.965 355.999Q177.621 355.507 177.301 354.998Q176.981 354.489 176.687 353.965Q176.393 353.441 176.125 352.903Q175.857 352.365 175.617 351.814Q175.376 351.263 175.163 350.701C172.754 344.161 173.065 335.628 176.25 329.393C179.829 322.387 186.142 318.818 193.364 316.589Z"/>
	<path fill="#F99D3A" d="M159.398 425.088L169.493 424.963C170.416 435.374 170.509 445.967 170.835 456.414L172.621 521.817L179.989 785.594Q351.776 782.058 523.456 775.049L523.462 781.925C511.615 782.054 499.699 783.037 487.85 783.508L409.193 786.577Q333.664 789.255 258.105 790.91L209.384 792.145C197.846 792.457 186.129 793.055 174.605 792.573C172.827 792.498 170.878 792.617 169.543 791.385C167.71 786.418 167.742 750.251 167.58 742.564L166.212 686.735L161.511 515.167Q160.176 470.134 159.398 425.088Z"/>
	<path fill="#F99D3A" d="M539.312 324.722C545.452 324.333 551.706 324.421 557.862 324.281C549.868 335.076 540.296 345.138 531.517 355.346Q509.271 381.095 488.183 407.8Q448.625 408.307 409.094 409.847Q399.716 410.031 390.347 410.471C398.596 400.028 408.115 390.225 417.105 380.414L466.813 326.456Q503.075 326.121 539.312 324.722Z"/>
	<path fill="#F99D3A" d="M429.971 327.292C433.019 326.989 436.14 326.978 439.203 326.862C435.854 331.819 431.516 336.276 427.52 340.72L409.41 360.685Q386.846 385.301 365.069 410.615C355.462 411.403 345.693 411.407 336.058 411.69Q307.334 412.322 278.625 413.457L268.47 413.656C280.441 400.1 293.013 387.123 305.219 373.792C318.792 358.967 332.682 343.195 347.127 329.248Q388.575 329.348 429.971 327.292Z"/>
	<path fill="#F99D3A" d="M677.151 42.9857C682.302 43.5142 692.377 48.1691 697.881 49.9927C674.792 60.3342 651.156 69.6029 627.783 79.2782L501.259 132.039Q316.68 211.865 130.625 288.188L120.773 291.943C118.436 288.195 115.74 284.613 113.242 280.965C122.418 277.779 131.305 273.329 140.261 269.552L191.993 247.56L305.007 199.537L677.151 42.9857Z"/>
	<path fill="#F99D3A" d="M720.008 428.75L725.82 428.507C726.243 447.556 727.723 466.582 728.022 485.64C720.902 483.24 713.948 480.953 706.62 479.293C706.462 469.397 705.627 459.449 705.061 449.565C690.101 449.539 675.162 450.706 660.222 451.271C621.563 452.733 582.897 454.726 544.231 455.865L546.524 529.351C543.002 530.262 537.975 530.73 535.389 533.505C532.572 536.528 533.41 542.141 533.477 545.97L526.988 546.055C526.695 533.043 525.784 519.994 525.171 506.99L523.13 456.458Q449.427 459.68 375.681 461.669Q378.576 526.166 380.522 590.698Q448.831 587.316 517.182 584.97C517.074 591.299 517.365 597.662 517.526 603.991C505.513 605.553 492.699 605.3 480.589 605.808Q445.007 607.202 409.471 609.477C409.414 623.737 410.573 638.082 411.087 652.341C421.271 652.284 431.562 651.324 441.748 650.852L519.86 646.898Q519.841 656.69 520.426 666.465C484.242 667.311 448.073 670.974 411.885 671.495C411.991 675.325 412.251 679.16 412.447 682.987C412.669 696.67 413.692 710.447 414.228 724.133C427.174 723.899 440.09 722.965 453.024 722.411L521.953 719.533L522.116 738.978C481.734 740.176 441.35 742.791 400.979 744.439L209.354 751.162C207.921 751.203 206.455 751.357 205.192 750.583C202.49 742.398 202.948 722.086 202.587 712.336Q201.141 673.965 200.15 635.58L194.242 447.932C226.944 446.171 259.767 445.654 292.499 444.39L618.497 432.616C652.326 431.298 686.199 430.481 720.008 428.75Z"/>
	<path fill="#070706" d="M346.722 462.717C349.809 462.45 353.009 462.542 356.113 462.476L361.101 591.8C316.891 592.178 272.577 595.244 228.375 596.536L218.603 597.022C217.744 574.521 217.57 551.967 216.965 529.454Q215.923 498.447 214.491 467.455L346.722 462.717Z"/>
	<path fill="#070706" d="M386.306 610.222C387.343 610.112 388.112 610.132 389.134 610.337C390.799 612.804 394.148 712.606 394.515 725.434L227.836 731.359C226.127 731.373 224.738 731.652 223.215 730.838C221.684 718.12 222.082 703.606 221.696 690.634L219.116 616.85C235.34 615.598 251.705 615.735 267.959 615.046L386.306 610.222Z"/>
	<path fill="#FEFEFE" d="M678.565 501.85C688.979 504.342 698.858 508.262 708.943 511.794C718.865 515.268 728.916 518.457 738.889 521.792L808.741 544.579C816.683 547.1 824.734 549.271 832.667 551.817L867.03 563.158C871.217 564.502 875.962 566.522 880.248 567.278C882.323 567.644 884.497 567.269 886.556 567.635C887.776 567.851 887.774 568.155 888.439 569.141C888.538 570.012 888.548 570.533 888.232 571.371C884.524 581.21 879.36 590.854 874.957 600.422L852.817 649.404L783.227 802.503C771.486 828.158 758.796 853.589 747.751 879.531L761.976 883.972C765.415 878.125 767.959 871.56 770.856 865.41Q781.15 843.567 791.058 821.546Q818.427 763.518 844.968 705.107Q868.217 655.363 890.68 605.258C896.898 591.343 906.249 572.897 910.287 558.634L869.593 545.786C862.579 543.562 854.241 541.684 847.761 538.296L847.956 538.37L847.175 536.698C847.358 536.599 847.532 536.483 847.723 536.401C851.886 534.618 859.682 537.933 863.882 539.236C882.062 544.261 899.955 550.585 918.07 555.891C912.365 570.918 905.289 585.47 898.757 600.146L854.237 698.123Q828.719 754.62 802.29 810.697L783.932 849.783C779.151 860.062 774.637 870.466 769.37 880.511C767.49 884.096 765.768 887.636 762.868 890.524C744.903 883.75 726.056 878.768 707.76 872.91L589.705 834.728L554.521 822.951C546.717 820.299 538.773 817.806 531.219 814.497C536.682 804.57 541.099 793.996 545.855 783.714L575.105 719.705L621.248 622.263C640.1 582.062 658.52 541.462 678.565 501.85Z"/>
	<path fill="#070706" d="M682.021 508.112C690.194 510.31 698.311 513.715 706.358 516.414L758.357 533.566C776.454 539.42 794.484 545.632 812.641 551.27C835.379 558.332 858.432 564.937 880.887 572.822C872.388 593.279 862.896 613.405 853.846 633.627L793.926 765.165L761.583 836.27C755.418 849.862 749.48 863.539 742.725 876.856C741.306 877.465 740.32 876.901 738.857 876.546C732.054 874.028 724.777 872.191 717.845 869.969L668.006 853.957L538.984 811.746C550.552 785.042 563.233 758.756 575.496 732.363L641.134 592.825C648.595 577.227 655.703 561.439 663.366 545.942C669.561 533.415 676.599 520.974 682.021 508.112Z"/>
	<path fill="#FEFEFE" d="M649.165 777.319C672.186 784.223 694.841 792.11 717.609 799.77C729.284 803.697 741.436 807.046 752.942 811.384C753.733 811.682 754.248 812.082 754.829 812.683C755.28 814.229 755.001 814.545 754.486 816.025C753.055 816.132 751.64 815.8 750.275 815.392C729.108 809.068 708.306 801.381 687.34 794.425C679.593 791.854 653.673 784.684 648.708 781.271C648.213 779.874 648.76 778.672 649.165 777.319Z"/>
	<path fill="#FEFEFE" d="M735.49 578.23C741.912 579.891 748.325 582.427 754.631 584.519L790.74 596.382Q806.427 601.564 822.187 606.519C829.844 608.929 837.692 611.14 845.139 614.124C845.503 615.504 844.553 616.982 844.008 618.234C843.677 618.359 843.369 618.616 843.014 618.61C841.352 618.582 810.911 607.817 806.18 606.261C785.121 599.332 763.801 593.085 742.845 585.867C740.09 584.918 737.395 583.765 734.727 582.598C734.359 580.937 734.982 579.833 735.49 578.23Z"/>
	<path fill="#FEFEFE" d="M676.61 711.724C681.415 712.696 686.257 714.621 690.908 716.182L715.359 724.398C738.228 732.005 761.26 739.066 784.097 746.802L782.296 751.374C781.569 751.573 781.868 751.568 781.058 751.439C776.579 750.727 764.678 745.279 759.452 743.518C742.209 737.709 724.686 732.607 707.375 726.977C702.523 725.399 679.642 718.616 676.625 716.536C676.072 716.155 676.026 716.009 675.7 715.523C675.43 713.963 675.954 713.081 676.61 711.724Z"/>
	<path fill="#FEFEFE" d="M641.84 797.061C649.833 799.962 658.015 802.368 666.091 805.03Q689.648 812.965 713.356 820.436C723.579 823.695 734.42 826.463 744.316 830.557C745.685 831.123 746.251 831.191 747.025 832.435C746.939 834.036 746.042 835.182 745.218 836.498C735.358 832.656 725.078 829.637 715.02 826.348C689.986 818.161 664.594 810.5 639.807 801.638C640.397 800.068 641.117 798.574 641.84 797.061Z"/>
	<path fill="#FEFEFE" d="M728.045 598.683C740.418 602.014 752.796 606.913 765.003 610.931Q800.917 622.746 836.961 634.154C836.448 635.849 835.687 637.492 835.007 639.128C828.324 637.955 814.384 632.315 807.078 629.912Q779.181 620.976 751.405 611.667C744.946 609.535 732.133 606.371 727.113 603.01C726.761 601.493 727.522 600.087 728.045 598.683Z"/>
	<path fill="#FEFEFE" d="M668.128 730.849C684.16 735.682 700.002 741.526 715.956 746.673L756.431 759.624C762.024 761.414 771.395 763.45 776.236 766.555C776.483 768.006 775.571 769.409 774.982 770.7C754.048 764.464 733.462 757.344 712.656 750.722C703.874 747.928 672.831 739.351 666.817 735.171C666.482 733.596 667.451 732.224 668.128 730.849Z"/>
	<path fill="#FEFEFE" d="M696.507 666.753C706.499 668.377 724.187 675.507 734.485 678.898C758.327 686.747 782.33 694.155 806.103 702.208L803.776 706.31C803.559 706.359 803.346 706.439 803.123 706.457C802.159 706.536 705.464 674.936 698.323 672.217C697.058 671.736 696.317 671.258 695.443 670.186C695.259 668.52 695.691 668.175 696.507 666.753Z"/>
	<path fill="#FEFEFE" d="M704.375 647.114C709.152 648.085 713.873 649.933 718.513 651.422L743.332 659.317C766.924 666.868 790.74 674.05 814.18 682.042L812.183 686.483C801.924 684.574 790.516 679.795 780.414 676.654C764.264 671.633 748.306 666.15 732.24 660.885C723.387 657.983 713.934 655.537 705.309 652.051C704.074 651.552 703.737 651.34 702.963 650.306C702.97 648.926 703.613 648.187 704.375 647.114Z"/>
	<path fill="#F99D3A" d="M626.013 680.209C633.122 683.273 639.095 685.394 643.049 692.461C646.844 691.356 650.588 689.474 654.248 687.964Q663.33 684.116 672.677 680.963C670.132 686.499 668.655 692.696 665.954 698.069C665.392 699.188 665.329 699.166 664.185 699.494C652.702 703.079 644.026 710.062 634.062 716.371C631.717 706.066 629.478 697.879 621.911 690.083C623.082 686.742 624.629 683.47 626.013 680.209Z"/>
	<path fill="#F99D3A" d="M654.365 617.568C659.212 619.263 665.441 621.31 669.078 624.99C669.339 626.097 669.529 626.955 670.124 627.94L670.492 627.149L670.507 628.031C674.987 627.719 694.789 619.911 700.871 617.939C698.578 622.194 696.96 626.676 694.841 630.984C693.2 634.32 692.289 635.584 688.637 636.847C677.578 641.293 671.004 648.154 661.421 652.481C658.979 642.308 657.378 637.793 649.372 630.652Q651.641 624.023 654.365 617.568Z"/>
	<path fill="#F99D3A" d="M684.821 548.709L685.76 549.111C688.946 550.508 699.018 555.215 700.146 558.748C700.4 559.546 700.625 560.033 701.062 560.746C702.867 560.82 707.231 557.83 709.17 556.965C715.866 553.98 723.019 551.861 729.986 549.604C728.105 556.072 726.163 564.065 719.916 567.59C710.08 572.165 702.017 577.868 693.014 583.727C688.639 575.727 685.52 568.91 679.186 562.093C680.756 557.465 682.718 553.112 684.821 548.709Z"/>
	<path fill="#F99D3A" d="M646.248 740.483L646.731 740.59C647.062 743.092 642.209 752.738 640.997 755.339C629.048 760.617 615.889 770.604 604.941 777.988C603.519 772.67 602.126 767.826 599.428 762.999C597.166 759.837 594.751 757.007 592.092 754.173C593.742 750.679 595.518 747.268 597.33 743.856C604.342 746.157 610.656 749.836 616.96 753.591C626.93 749.802 636.133 744.172 646.248 740.483Z"/>
	<path fill="#F99D3A" d="M648.238 633.752C654.217 638.054 655.369 646.13 657.084 652.795C657.653 655.007 657.777 657.181 659.866 658.414C671.34 654.597 678.751 643.827 691.924 640.422Q688.901 647.797 685.758 655.122C684.243 658.67 682.564 662.162 680.958 665.67C674.3 666.715 667.477 669.6 660.791 669.846C655.365 670.046 644.632 666.402 637.739 665.687C641.221 654.976 644.198 644.287 648.238 633.752Z"/>
	<path fill="#F99D3A" d="M678.458 565.401C680.727 567.931 682.689 570.316 684.23 573.383C685.948 576.8 687.72 585.914 690.188 587.837C692.059 588.341 693.264 587.879 694.952 587.061C698.371 585.405 701.523 582.845 704.646 580.68C710.234 576.806 715.827 573.253 722.089 570.571C720.885 576.28 718.319 581.749 716.004 587.081C714.366 590.798 712.959 596.287 710.053 599.129C707.997 601.139 704.673 601.786 701.937 602.226C690.227 604.108 684.47 601.64 673.399 601.008L672.533 600.963C671.802 591.774 675.688 574.228 678.458 565.401Z"/>
	<path fill="#F99D3A" d="M620.588 693.39C628.627 700.775 626.669 713.276 631.411 720.044C635.19 725.439 655.655 702.828 663.419 704.747C664.095 704.914 664.076 705.372 664.332 705.943C663.836 709.597 659.891 716.191 658.241 719.874Q656.08 725.006 653.762 730.068C649.155 731.275 644.087 732.956 639.338 733.252C633.13 733.64 617.965 729.687 611.698 727.28C609.014 721.055 618.067 699.953 620.588 693.39Z"/>
	<path fill="#F99D3A" d="M590.975 757.736C598.003 765.125 601.366 774.836 602.339 784.909C613.49 777.129 627.028 767.75 638.606 760.732C636.189 767.462 632.783 773.946 629.513 780.294C626.14 786.854 622.788 793.418 619.155 799.839C605.068 797.18 591.115 793.575 577.214 790.077C582.288 779.592 586.092 768.365 590.975 757.736Z"/>
</svg>
